<svg width="257" height="70" viewBox="0 0 257 70" fill="none" xmlns="http://www.w3.org/2000/svg">
<g clip-path="url(#clip0_44_2)">
<path d="M76.0651 48.2224V20.2223H86.2651C87.7451 20.2223 89.0784 20.529 90.2651 21.1423C91.4651 21.7424 92.4118 22.609 93.1051 23.7423C93.8118 24.8623 94.1651 26.189 94.1651 27.7223C94.1651 28.4023 94.0651 29.089 93.8651 29.7824C93.6651 30.4757 93.3584 31.1023 92.9451 31.6623C92.5318 32.209 91.9984 32.6157 91.3451 32.8824C92.2118 33.0957 92.9184 33.4824 93.4651 34.0424C94.0118 34.6023 94.4384 35.2624 94.7451 36.0224C95.0518 36.769 95.2584 37.5357 95.3651 38.3224C95.4851 39.0957 95.5451 39.8157 95.5451 40.4824C95.5451 41.9624 95.1784 43.2824 94.4451 44.4424C93.7118 45.6024 92.7251 46.5224 91.4851 47.2024C90.2584 47.8824 88.8984 48.2224 87.4051 48.2224H76.0651ZM80.9451 44.0424H86.9051C87.7051 44.0424 88.4251 43.849 89.0651 43.4624C89.7051 43.0757 90.2184 42.5424 90.6051 41.8624C90.9918 41.1824 91.1851 40.409 91.1851 39.5424C91.1851 38.7957 90.9918 38.089 90.6051 37.4224C90.2184 36.7557 89.7051 36.2157 89.0651 35.8024C88.4251 35.389 87.7051 35.1824 86.9051 35.1824H80.9451V44.0424ZM80.9451 31.0624H85.7051C86.6918 31.0624 87.5318 30.7557 88.2251 30.1424C88.9318 29.529 89.2851 28.7157 89.2851 27.7024C89.2851 26.6224 88.9318 25.809 88.2251 25.2624C87.5318 24.7024 86.6918 24.4223 85.7051 24.4223H80.9451V31.0624ZM107.287 48.7424C105.447 48.7424 103.767 48.269 102.247 47.3224C100.74 46.3757 99.5336 45.1024 98.627 43.5024C97.7336 41.9024 97.287 40.1357 97.287 38.2024C97.287 36.749 97.547 35.389 98.067 34.1224C98.587 32.8424 99.3003 31.7224 100.207 30.7624C101.127 29.789 102.194 29.029 103.407 28.4824C104.62 27.9357 105.914 27.6624 107.287 27.6624C108.847 27.6624 110.274 27.9957 111.567 28.6624C112.874 29.3157 113.98 30.2157 114.887 31.3623C115.794 32.509 116.454 33.8157 116.867 35.2824C117.28 36.749 117.374 38.2824 117.147 39.8824H102.527C102.714 40.629 103.02 41.3024 103.447 41.9024C103.874 42.489 104.414 42.9624 105.067 43.3224C105.72 43.669 106.46 43.849 107.287 43.8624C108.14 43.8757 108.914 43.6757 109.607 43.2624C110.314 42.8357 110.9 42.2624 111.367 41.5424L116.347 42.7024C115.534 44.4757 114.32 45.929 112.707 47.0624C111.094 48.1824 109.287 48.7424 107.287 48.7424ZM102.367 36.2224H112.207C112.06 35.4224 111.747 34.7024 111.267 34.0624C110.8 33.409 110.22 32.889 109.527 32.5024C108.834 32.1157 108.087 31.9223 107.287 31.9223C106.487 31.9223 105.747 32.1157 105.067 32.5024C104.387 32.8757 103.807 33.389 103.327 34.0424C102.86 34.6824 102.54 35.409 102.367 36.2224ZM120.089 48.2224V18.2223H124.969V48.2224H120.089ZM128.976 40.8224V28.2224H133.856V39.5424C133.856 40.329 134.049 41.049 134.436 41.7024C134.823 42.3424 135.336 42.8557 135.976 43.2424C136.629 43.6157 137.343 43.8024 138.116 43.8024C138.916 43.8024 139.636 43.6157 140.276 43.2424C140.916 42.8557 141.429 42.3424 141.816 41.7024C142.203 41.049 142.396 40.329 142.396 39.5424V28.2224H147.276L147.296 48.2224H142.416L142.396 46.4024C141.703 47.1224 140.883 47.6957 139.936 48.1224C138.989 48.5357 137.976 48.7424 136.896 48.7424C135.443 48.7424 134.116 48.389 132.916 47.6824C131.716 46.9624 130.756 46.009 130.036 44.8224C129.329 43.6224 128.976 42.289 128.976 40.8224ZM165.827 28.2224H170.707V48.6024C170.707 50.0424 170.414 51.349 169.827 52.5224C169.24 53.709 168.44 54.7224 167.427 55.5624C166.414 56.4157 165.254 57.069 163.947 57.5224C162.64 57.989 161.267 58.2224 159.827 58.2224C158.427 58.2224 157.08 57.9357 155.787 57.3624C154.494 56.789 153.347 56.0024 152.347 55.0024C151.36 54.0157 150.607 52.889 150.087 51.6224L154.547 49.6024C154.814 50.3357 155.214 50.9757 155.747 51.5224C156.294 52.0824 156.92 52.5157 157.627 52.8224C158.334 53.1424 159.067 53.3024 159.827 53.3024C160.6 53.3024 161.34 53.1957 162.047 52.9824C162.767 52.769 163.414 52.4557 163.987 52.0424C164.56 51.6424 165.007 51.149 165.327 50.5624C165.66 49.989 165.827 49.3357 165.827 48.6024V45.7824C165.2 46.6624 164.414 47.3757 163.467 47.9224C162.52 48.469 161.427 48.7424 160.187 48.7424C158.747 48.7424 157.4 48.469 156.147 47.9224C154.894 47.3757 153.787 46.6224 152.827 45.6624C151.88 44.689 151.134 43.569 150.587 42.3024C150.054 41.0357 149.787 39.6757 149.787 38.2224C149.787 36.769 150.054 35.409 150.587 34.1423C151.134 32.8757 151.88 31.7624 152.827 30.8024C153.787 29.829 154.894 29.069 156.147 28.5223C157.4 27.9757 158.747 27.7024 160.187 27.7024C161.427 27.7024 162.52 27.9757 163.467 28.5223C164.414 29.0557 165.2 29.7623 165.827 30.6423V28.2224ZM160.247 44.0424C161.274 44.0424 162.18 43.7824 162.967 43.2624C163.767 42.729 164.394 42.0224 164.847 41.1424C165.3 40.249 165.527 39.2757 165.527 38.2224C165.527 37.1557 165.294 36.1824 164.827 35.3024C164.374 34.4224 163.747 33.7157 162.947 33.1824C162.16 32.649 161.26 32.3823 160.247 32.3823C159.247 32.3823 158.334 32.649 157.507 33.1824C156.68 33.7024 156.02 34.4024 155.527 35.2824C155.034 36.1624 154.787 37.1424 154.787 38.2224C154.787 39.3024 155.034 40.2824 155.527 41.1624C156.02 42.0424 156.68 42.7424 157.507 43.2624C158.334 43.7824 159.247 44.0424 160.247 44.0424ZM190.129 28.2224H195.009V48.2224H190.129L189.909 45.7424C189.363 46.6357 188.636 47.3624 187.729 47.9224C186.836 48.469 185.776 48.7424 184.549 48.7424C183.069 48.7424 181.683 48.4624 180.389 47.9024C179.096 47.3424 177.956 46.569 176.969 45.5824C175.996 44.5957 175.229 43.4557 174.669 42.1624C174.123 40.869 173.849 39.4824 173.849 38.0024C173.849 36.5757 174.109 35.2357 174.629 33.9824C175.163 32.729 175.903 31.629 176.849 30.6824C177.796 29.7357 178.889 28.9957 180.129 28.4624C181.369 27.929 182.703 27.6624 184.129 27.6624C185.449 27.6624 186.629 27.9557 187.669 28.5424C188.723 29.129 189.616 29.8757 190.349 30.7824L190.129 28.2224ZM184.429 44.0424C185.469 44.0424 186.389 43.7824 187.189 43.2624C187.989 42.7424 188.616 42.0424 189.069 41.1624C189.523 40.269 189.749 39.289 189.749 38.2224C189.749 37.1424 189.523 36.1624 189.069 35.2824C188.616 34.389 187.983 33.6824 187.169 33.1624C186.369 32.6424 185.456 32.3823 184.429 32.3823C183.403 32.3823 182.463 32.649 181.609 33.1824C180.769 33.7024 180.096 34.4024 179.589 35.2824C179.096 36.1624 178.849 37.1424 178.849 38.2224C178.849 39.3024 179.103 40.2824 179.609 41.1624C180.116 42.0424 180.789 42.7424 181.629 43.2624C182.483 43.7824 183.416 44.0424 184.429 44.0424ZM208.355 20.2223H213.975L224.155 48.2224H218.975L217.175 43.2624H205.175L203.375 48.2224H198.195L208.355 20.2223ZM206.955 38.3824H215.375L211.155 26.8424L206.955 38.3824ZM228.11 48.2224V20.2223H232.99V48.2224H228.11Z" fill="black"/>
<path d="M26.0719 57.5147L36.2117 51.246C37.3493 50.5427 39.0193 51.0853 39.8785 52.1103C41.12 53.5911 43.4197 55.5975 47.6095 57.5147C52.9075 59.9389 60.0906 58.0163 64.3664 56.4268C65.9041 55.8552 65.9308 53.839 64.4633 53.1057L59.9053 50.828C59.653 50.702 59.4302 50.524 59.2516 50.3058L53.7729 43.6126C53.5096 43.2909 53.1526 43.0593 52.7515 42.9499L47.6674 41.5633C46.4957 41.2437 45.877 39.9622 46.3554 38.8459L48.7321 33.3003C48.9355 32.8256 48.9474 32.2906 48.7654 31.8073L45.8546 24.0815C45.6808 23.6201 45.6835 23.1107 45.8623 22.6512L49.1235 14.2688C49.7824 12.5752 48.0641 11.0239 46.489 11.9301C41.9985 14.5136 35.4408 18.8103 33.2128 22.9628C30.7495 27.554 31.8632 34.0954 32.7456 37.5858C33.0612 38.8344 32.2291 40.139 30.9495 40.2856L28.4959 40.5667L17 40.9585" stroke="#0050C8" stroke-width="5" stroke-linecap="round"/>
</g>
<defs>
<clipPath id="clip0_44_2">
<rect width="257" height="70" fill="white"/>
</clipPath>
</defs>
</svg>
