<svg width="190" height="46" viewBox="0 0 190 46" fill="none" xmlns="http://www.w3.org/2000/svg">
<path d="M46.125 23.25C46.125 24.2333 46.3417 25.075 46.775 25.775C47.225 26.4583 47.8167 26.9833 48.55 27.35C49.2833 27.7 50.0917 27.875 50.975 27.875C51.8083 27.875 52.5333 27.7667 53.15 27.55C53.7667 27.3333 54.3167 27.0583 54.8 26.725C55.2833 26.375 55.7083 26.0083 56.075 25.625V30.725C55.3917 31.225 54.6333 31.6417 53.8 31.975C52.9833 32.2917 51.9333 32.45 50.65 32.45C49.2 32.45 47.8667 32.2333 46.65 31.8C45.4333 31.3667 44.3917 30.7417 43.525 29.925C42.6583 29.1083 41.9833 28.1417 41.5 27.025C41.0333 25.8917 40.8 24.6333 40.8 23.25C40.8 21.8667 41.0333 20.6167 41.5 19.5C41.9833 18.3667 42.6583 17.3917 43.525 16.575C44.3917 15.7583 45.4333 15.1333 46.65 14.7C47.8667 14.2667 49.2 14.05 50.65 14.05C51.9333 14.05 52.9833 14.2083 53.8 14.525C54.6333 14.8417 55.3917 15.2583 56.075 15.775V20.875C55.7083 20.4917 55.2833 20.1333 54.8 19.8C54.3167 19.45 53.7667 19.1667 53.15 18.95C52.5333 18.7333 51.8083 18.625 50.975 18.625C50.0917 18.625 49.2833 18.8083 48.55 19.175C47.8167 19.525 47.225 20.05 46.775 20.75C46.3417 21.4333 46.125 22.2667 46.125 23.25ZM65.677 14.5H70.627V32H65.677V14.5ZM85.2219 24.275H90.1969L95.4469 32H89.7969L85.2219 24.275ZM80.4719 14.5H85.3219V32H80.4719V14.5ZM83.5719 18.6V14.5H87.3469C88.9469 14.5 90.2635 14.75 91.2969 15.25C92.3469 15.75 93.1219 16.4417 93.6219 17.325C94.1385 18.1917 94.3969 19.2 94.3969 20.35C94.3969 21.4833 94.1385 22.5 93.6219 23.4C93.1219 24.2833 92.3469 24.975 91.2969 25.475C90.2635 25.9583 88.9469 26.2 87.3469 26.2H83.5719V22.525H86.9469C87.4635 22.525 87.8969 22.45 88.2469 22.3C88.5969 22.15 88.8635 21.925 89.0469 21.625C89.2469 21.325 89.3469 20.9667 89.3469 20.55C89.3469 20.1333 89.2469 19.7833 89.0469 19.5C88.8635 19.2 88.5969 18.975 88.2469 18.825C87.8969 18.675 87.4635 18.6 86.9469 18.6H83.5719ZM107.868 23.25C107.868 24.2333 108.085 25.075 108.518 25.775C108.968 26.4583 109.56 26.9833 110.293 27.35C111.026 27.7 111.835 27.875 112.718 27.875C113.551 27.875 114.276 27.7667 114.893 27.55C115.51 27.3333 116.06 27.0583 116.543 26.725C117.026 26.375 117.451 26.0083 117.818 25.625V30.725C117.135 31.225 116.376 31.6417 115.543 31.975C114.726 32.2917 113.676 32.45 112.393 32.45C110.943 32.45 109.61 32.2333 108.393 31.8C107.176 31.3667 106.135 30.7417 105.268 29.925C104.401 29.1083 103.726 28.1417 103.243 27.025C102.776 25.8917 102.543 24.6333 102.543 23.25C102.543 21.8667 102.776 20.6167 103.243 19.5C103.726 18.3667 104.401 17.3917 105.268 16.575C106.135 15.7583 107.176 15.1333 108.393 14.7C109.61 14.2667 110.943 14.05 112.393 14.05C113.676 14.05 114.726 14.2083 115.543 14.525C116.376 14.8417 117.135 15.2583 117.818 15.775V20.875C117.451 20.4917 117.026 20.1333 116.543 19.8C116.06 19.45 115.51 19.1667 114.893 18.95C114.276 18.7333 113.551 18.625 112.718 18.625C111.835 18.625 111.026 18.8083 110.293 19.175C109.56 19.525 108.968 20.05 108.518 20.75C108.085 21.4333 107.868 22.2667 107.868 23.25ZM127.42 14.5H132.47V32H127.42V14.5ZM138.145 14.5H143.795L136.845 22.7L144.17 32H138.295L131.07 22.85L138.145 14.5ZM152.152 14.5H157.002V27.875H164.077V32H152.152V14.5ZM175.471 32V28.075H184.296V32H175.471ZM175.471 18.425V14.5H184.296V18.425H175.471ZM175.471 24.8V21H183.796V24.8H175.471ZM172.171 14.5H176.821V32H172.171V14.5Z" fill="#FF7373"/>
<circle cx="18.5" cy="25.5" r="8.5" fill="#FF7373"/>
<circle cx="15" cy="23" r="12" stroke="#FF7373" stroke-width="2"/>
</svg>
