<svg width="206" height="70" viewBox="0 0 206 70" fill="none" xmlns="http://www.w3.org/2000/svg">
<path d="M12.4 49V21H21.68C23.6133 21 25.42 21.3667 27.1 22.1C28.7933 22.82 30.28 23.8267 31.56 25.12C32.8533 26.4 33.86 27.8867 34.58 29.58C35.3133 31.26 35.68 33.0667 35.68 35C35.68 36.9333 35.3133 38.7467 34.58 40.44C33.86 42.12 32.8533 43.6067 31.56 44.9C30.28 46.18 28.7933 47.1867 27.1 47.92C25.42 48.64 23.6133 49 21.68 49H12.4ZM18.4 43H21.68C22.76 43 23.78 42.7933 24.74 42.38C25.7 41.9667 26.5533 41.3933 27.3 40.66C28.0467 39.9267 28.6267 39.08 29.04 38.12C29.4667 37.1467 29.68 36.1067 29.68 35C29.68 33.8933 29.4667 32.86 29.04 31.9C28.6267 30.94 28.0467 30.0933 27.3 29.36C26.5667 28.6133 25.72 28.0333 24.76 27.62C23.8 27.2067 22.7733 27 21.68 27H18.4V43ZM36.8891 49V21H42.8891V49H36.8891ZM45.8813 49L51.3213 21H56.4413L62.7213 37.52L69.0013 21H74.1213L79.5613 49H73.4413L70.5213 33.88L64.8013 49H60.6413L54.9213 33.88L52.0013 49H45.8813ZM81.1375 49V21H98.9775V27H87.1375V31H96.2575V37H87.1375V43H98.9775V49H81.1375ZM100.964 49V21H111.524C113.057 21 114.444 21.3933 115.684 22.18C116.937 22.9533 117.931 23.9933 118.664 25.3C119.397 26.5933 119.764 28.0133 119.764 29.56C119.764 31.1333 119.384 32.5667 118.624 33.86C117.877 35.1533 116.877 36.1867 115.624 36.96C114.371 37.7333 113.004 38.12 111.524 38.12H106.964V49H100.964ZM106.964 32.12H110.844C111.377 32.12 111.864 31.9867 112.304 31.72C112.744 31.44 113.097 31.0733 113.364 30.62C113.631 30.1667 113.764 29.6667 113.764 29.12C113.764 28.5733 113.631 28.0733 113.364 27.62C113.097 27.1667 112.744 26.8067 112.304 26.54C111.864 26.26 111.377 26.12 110.844 26.12H106.964V32.12ZM121.391 49V21H127.391V49H121.391ZM130.383 49V21H148.223V27H136.383V31H145.503V37H136.383V43H148.223V49H130.383ZM163.169 49.52C161.276 49.52 159.496 49.1467 157.829 48.4C156.163 47.64 154.696 46.5933 153.429 45.26C152.176 43.9267 151.189 42.3867 150.469 40.64C149.763 38.88 149.409 37 149.409 35C149.409 32.9867 149.763 31.1067 150.469 29.36C151.189 27.6 152.176 26.06 153.429 24.74C154.696 23.4067 156.163 22.3667 157.829 21.62C159.496 20.86 161.276 20.48 163.169 20.48C165.436 20.48 167.523 21.0067 169.429 22.06C171.336 23.1 172.916 24.4933 174.169 26.24L168.809 29.12C168.116 28.32 167.283 27.68 166.309 27.2C165.336 26.72 164.289 26.48 163.169 26.48C162.103 26.48 161.096 26.7 160.149 27.14C159.216 27.58 158.389 28.1933 157.669 28.98C156.963 29.7533 156.409 30.6533 156.009 31.68C155.609 32.7067 155.409 33.8133 155.409 35C155.409 36.1733 155.609 37.2733 156.009 38.3C156.409 39.3267 156.963 40.2333 157.669 41.02C158.389 41.7933 159.216 42.4067 160.149 42.86C161.096 43.3 162.103 43.52 163.169 43.52C164.289 43.52 165.336 43.28 166.309 42.8C167.283 42.3067 168.116 41.6533 168.809 40.84L174.169 43.76C172.916 45.4933 171.336 46.8867 169.429 47.94C167.523 48.9933 165.436 49.52 163.169 49.52ZM175.348 49V21H193.188V27H181.348V31H190.468V37H181.348V43H193.188V49H175.348Z" fill="black"/>
</svg>
